<mxfile host="app.diagrams.net" modified="2023-03-17T17:28:34.572Z" agent="5.0 (Windows NT 10.0; Win64; x64) AppleWebKit/537.36 (KHTML, like Gecko) Chrome/111.0.0.0 Safari/537.36" etag="E4Cnn-7BvhhykPNO3e9_" version="21.0.6" type="github">
  <diagram id="C5RBs43oDa-KdzZeNtuy" name="Page-1">
    <mxGraphModel dx="564" dy="484" grid="1" gridSize="10" guides="1" tooltips="1" connect="1" arrows="1" fold="1" page="1" pageScale="1" pageWidth="827" pageHeight="1169" math="0" shadow="0">
      <root>
        <mxCell id="WIyWlLk6GJQsqaUBKTNV-0" />
        <mxCell id="WIyWlLk6GJQsqaUBKTNV-1" parent="WIyWlLk6GJQsqaUBKTNV-0" />
        <mxCell id="WIyWlLk6GJQsqaUBKTNV-2" value="" style="rounded=0;html=1;jettySize=auto;orthogonalLoop=1;fontSize=11;endArrow=block;endFill=0;endSize=8;strokeWidth=1;shadow=0;labelBackgroundColor=none;edgeStyle=orthogonalEdgeStyle;" parent="WIyWlLk6GJQsqaUBKTNV-1" source="WIyWlLk6GJQsqaUBKTNV-3" target="WIyWlLk6GJQsqaUBKTNV-6" edge="1">
          <mxGeometry relative="1" as="geometry" />
        </mxCell>
        <mxCell id="WIyWlLk6GJQsqaUBKTNV-3" value="Started" style="rounded=1;whiteSpace=wrap;html=1;fontSize=12;glass=0;strokeWidth=1;shadow=0;" parent="WIyWlLk6GJQsqaUBKTNV-1" vertex="1">
          <mxGeometry x="160" y="80" width="120" height="40" as="geometry" />
        </mxCell>
        <mxCell id="ZCbhdoCntF4dWJarLc5m-21" value="" style="edgeStyle=orthogonalEdgeStyle;rounded=0;orthogonalLoop=1;jettySize=auto;html=1;" edge="1" parent="WIyWlLk6GJQsqaUBKTNV-1" source="WIyWlLk6GJQsqaUBKTNV-6" target="WIyWlLk6GJQsqaUBKTNV-10">
          <mxGeometry relative="1" as="geometry" />
        </mxCell>
        <mxCell id="WIyWlLk6GJQsqaUBKTNV-6" value="Read &quot;Registration&quot;" style="rhombus;whiteSpace=wrap;html=1;shadow=0;fontFamily=Helvetica;fontSize=12;align=center;strokeWidth=1;spacing=6;spacingTop=-4;" parent="WIyWlLk6GJQsqaUBKTNV-1" vertex="1">
          <mxGeometry x="170" y="170" width="100" height="80" as="geometry" />
        </mxCell>
        <mxCell id="WIyWlLk6GJQsqaUBKTNV-8" value="No" style="rounded=0;html=1;jettySize=auto;orthogonalLoop=1;fontSize=11;endArrow=block;endFill=0;endSize=8;strokeWidth=1;shadow=0;labelBackgroundColor=none;edgeStyle=orthogonalEdgeStyle;" parent="WIyWlLk6GJQsqaUBKTNV-1" source="WIyWlLk6GJQsqaUBKTNV-10" edge="1">
          <mxGeometry x="0.3333" y="20" relative="1" as="geometry">
            <mxPoint as="offset" />
            <mxPoint x="220" y="430" as="targetPoint" />
          </mxGeometry>
        </mxCell>
        <mxCell id="ZCbhdoCntF4dWJarLc5m-24" style="edgeStyle=orthogonalEdgeStyle;rounded=0;orthogonalLoop=1;jettySize=auto;html=1;entryX=0;entryY=0.5;entryDx=0;entryDy=0;" edge="1" parent="WIyWlLk6GJQsqaUBKTNV-1" source="WIyWlLk6GJQsqaUBKTNV-10" target="WIyWlLk6GJQsqaUBKTNV-12">
          <mxGeometry relative="1" as="geometry" />
        </mxCell>
        <mxCell id="WIyWlLk6GJQsqaUBKTNV-10" value="New Patient&amp;nbsp;" style="rhombus;whiteSpace=wrap;html=1;shadow=0;fontFamily=Helvetica;fontSize=12;align=center;strokeWidth=1;spacing=6;spacingTop=-4;" parent="WIyWlLk6GJQsqaUBKTNV-1" vertex="1">
          <mxGeometry x="170" y="290" width="100" height="80" as="geometry" />
        </mxCell>
        <mxCell id="WIyWlLk6GJQsqaUBKTNV-12" value="The Committee Print RMK and RRK Registration" style="rounded=1;whiteSpace=wrap;html=1;fontSize=12;glass=0;strokeWidth=1;shadow=0;" parent="WIyWlLk6GJQsqaUBKTNV-1" vertex="1">
          <mxGeometry x="330" y="310" width="120" height="40" as="geometry" />
        </mxCell>
        <mxCell id="ZCbhdoCntF4dWJarLc5m-5" style="edgeStyle=orthogonalEdgeStyle;rounded=0;orthogonalLoop=1;jettySize=auto;html=1;" edge="1" parent="WIyWlLk6GJQsqaUBKTNV-1" source="ZCbhdoCntF4dWJarLc5m-3">
          <mxGeometry relative="1" as="geometry">
            <mxPoint x="239" y="561" as="targetPoint" />
          </mxGeometry>
        </mxCell>
        <mxCell id="ZCbhdoCntF4dWJarLc5m-3" value="The archived and prepare of data tracer and RMK for the old patient&amp;nbsp;&amp;nbsp;" style="shape=parallelogram;perimeter=parallelogramPerimeter;whiteSpace=wrap;html=1;fixedSize=1;" vertex="1" parent="WIyWlLk6GJQsqaUBKTNV-1">
          <mxGeometry x="64" y="440" width="350" height="50" as="geometry" />
        </mxCell>
        <mxCell id="ZCbhdoCntF4dWJarLc5m-7" style="edgeStyle=orthogonalEdgeStyle;rounded=0;orthogonalLoop=1;jettySize=auto;html=1;" edge="1" parent="WIyWlLk6GJQsqaUBKTNV-1" source="ZCbhdoCntF4dWJarLc5m-6">
          <mxGeometry relative="1" as="geometry">
            <mxPoint x="239" y="682" as="targetPoint" />
          </mxGeometry>
        </mxCell>
        <mxCell id="ZCbhdoCntF4dWJarLc5m-6" value="In the officer RMK" style="rounded=1;whiteSpace=wrap;html=1;" vertex="1" parent="WIyWlLk6GJQsqaUBKTNV-1">
          <mxGeometry x="179" y="570" width="120" height="60" as="geometry" />
        </mxCell>
        <mxCell id="ZCbhdoCntF4dWJarLc5m-10" value="" style="edgeStyle=orthogonalEdgeStyle;rounded=0;orthogonalLoop=1;jettySize=auto;html=1;" edge="1" parent="WIyWlLk6GJQsqaUBKTNV-1" source="ZCbhdoCntF4dWJarLc5m-8" target="ZCbhdoCntF4dWJarLc5m-9">
          <mxGeometry relative="1" as="geometry" />
        </mxCell>
        <mxCell id="ZCbhdoCntF4dWJarLc5m-8" value="The Officer input of data inpatients" style="rounded=0;whiteSpace=wrap;html=1;" vertex="1" parent="WIyWlLk6GJQsqaUBKTNV-1">
          <mxGeometry x="179" y="690" width="120" height="60" as="geometry" />
        </mxCell>
        <mxCell id="ZCbhdoCntF4dWJarLc5m-12" style="edgeStyle=orthogonalEdgeStyle;rounded=0;orthogonalLoop=1;jettySize=auto;html=1;" edge="1" parent="WIyWlLk6GJQsqaUBKTNV-1" source="ZCbhdoCntF4dWJarLc5m-9">
          <mxGeometry relative="1" as="geometry">
            <mxPoint x="245" y="940" as="targetPoint" />
          </mxGeometry>
        </mxCell>
        <mxCell id="ZCbhdoCntF4dWJarLc5m-9" value="The hospital staff to determinate class for patient with fill some kind of statement&amp;nbsp;&amp;nbsp;" style="rounded=0;whiteSpace=wrap;html=1;" vertex="1" parent="WIyWlLk6GJQsqaUBKTNV-1">
          <mxGeometry x="170" y="830" width="150" height="60" as="geometry" />
        </mxCell>
        <mxCell id="ZCbhdoCntF4dWJarLc5m-13" style="edgeStyle=orthogonalEdgeStyle;rounded=0;orthogonalLoop=1;jettySize=auto;html=1;" edge="1" parent="WIyWlLk6GJQsqaUBKTNV-1" source="ZCbhdoCntF4dWJarLc5m-11">
          <mxGeometry relative="1" as="geometry">
            <mxPoint x="250" y="1080" as="targetPoint" />
          </mxGeometry>
        </mxCell>
        <mxCell id="ZCbhdoCntF4dWJarLc5m-11" value="The patient given a signature accept of treatment lived at hospital" style="rounded=0;whiteSpace=wrap;html=1;" vertex="1" parent="WIyWlLk6GJQsqaUBKTNV-1">
          <mxGeometry x="180" y="950" width="140" height="60" as="geometry" />
        </mxCell>
        <mxCell id="ZCbhdoCntF4dWJarLc5m-15" style="edgeStyle=orthogonalEdgeStyle;rounded=0;orthogonalLoop=1;jettySize=auto;html=1;exitX=0.5;exitY=1;exitDx=0;exitDy=0;" edge="1" parent="WIyWlLk6GJQsqaUBKTNV-1" source="ZCbhdoCntF4dWJarLc5m-14">
          <mxGeometry relative="1" as="geometry">
            <mxPoint x="250" y="1200" as="targetPoint" />
          </mxGeometry>
        </mxCell>
        <mxCell id="ZCbhdoCntF4dWJarLc5m-14" value="The staff prepare all of things for the treatment patient live on hospital" style="rounded=1;whiteSpace=wrap;html=1;" vertex="1" parent="WIyWlLk6GJQsqaUBKTNV-1">
          <mxGeometry x="180" y="1090" width="140" height="60" as="geometry" />
        </mxCell>
        <mxCell id="ZCbhdoCntF4dWJarLc5m-17" style="edgeStyle=orthogonalEdgeStyle;rounded=0;orthogonalLoop=1;jettySize=auto;html=1;exitX=0.5;exitY=1;exitDx=0;exitDy=0;" edge="1" parent="WIyWlLk6GJQsqaUBKTNV-1" source="ZCbhdoCntF4dWJarLc5m-16">
          <mxGeometry relative="1" as="geometry">
            <mxPoint x="250" y="1383" as="targetPoint" />
          </mxGeometry>
        </mxCell>
        <mxCell id="ZCbhdoCntF4dWJarLc5m-16" value="The patient doing a pay of administration at cahier&amp;nbsp;&amp;nbsp;" style="rounded=1;whiteSpace=wrap;html=1;" vertex="1" parent="WIyWlLk6GJQsqaUBKTNV-1">
          <mxGeometry x="190" y="1210" width="120" height="60" as="geometry" />
        </mxCell>
        <mxCell id="ZCbhdoCntF4dWJarLc5m-20" value="" style="edgeStyle=orthogonalEdgeStyle;rounded=0;orthogonalLoop=1;jettySize=auto;html=1;" edge="1" parent="WIyWlLk6GJQsqaUBKTNV-1" source="ZCbhdoCntF4dWJarLc5m-18" target="ZCbhdoCntF4dWJarLc5m-19">
          <mxGeometry relative="1" as="geometry" />
        </mxCell>
        <mxCell id="ZCbhdoCntF4dWJarLc5m-18" value="All the document RMK submitted to Staff UGD for the treatment at Hospital&amp;nbsp;" style="rounded=1;whiteSpace=wrap;html=1;" vertex="1" parent="WIyWlLk6GJQsqaUBKTNV-1">
          <mxGeometry x="190" y="1390" width="130" height="60" as="geometry" />
        </mxCell>
        <mxCell id="ZCbhdoCntF4dWJarLc5m-19" value="DONE" style="whiteSpace=wrap;html=1;rounded=1;" vertex="1" parent="WIyWlLk6GJQsqaUBKTNV-1">
          <mxGeometry x="195" y="1490" width="120" height="60" as="geometry" />
        </mxCell>
        <mxCell id="ZCbhdoCntF4dWJarLc5m-25" value="Yes" style="text;html=1;align=center;verticalAlign=middle;resizable=0;points=[];autosize=1;strokeColor=none;fillColor=none;" vertex="1" parent="WIyWlLk6GJQsqaUBKTNV-1">
          <mxGeometry x="270" y="305" width="40" height="30" as="geometry" />
        </mxCell>
      </root>
    </mxGraphModel>
  </diagram>
</mxfile>
